<?xml version="1.0" encoding="UTF-8"?>
<svg width="89px" height="106px" viewBox="0 0 89 106" version="1.1" xmlns="http://www.w3.org/2000/svg" xmlns:xlink="http://www.w3.org/1999/xlink">
    <!-- Generator: Sketch 45.2 (43514) - http://www.bohemiancoding.com/sketch -->
    <title>Group 11</title>
    <desc>Created with Sketch.</desc>
    <defs></defs>
    <g id="Page-1" stroke="none" stroke-width="1" fill="none" fill-rule="evenodd" opacity="0.5">
        <g id="Desktop-HD-Copy" transform="translate(-1351.000000, -861.000000)">
            <g id="Group-11" transform="translate(1456.000000, 914.338104) rotate(90.000000) translate(-1456.000000, -914.338104) translate(1403.000000, 808.838104)">
                <g id="Group-9" fill="#2AC6D0">
                    <g id="Group-10">
                        <circle id="Oval-4" cx="3.62461739" cy="125.336027" r="3.62461739"></circle>
                        <circle id="Oval-4" cx="19.9772798" cy="125.336027" r="3.62461739"></circle>
                        <circle id="Oval-4" cx="36.3299422" cy="125.336027" r="3.62461739"></circle>
                        <circle id="Oval-4" cx="69.0352671" cy="125.336027" r="3.62461739"></circle>
                        <circle id="Oval-4" cx="101.740592" cy="125.336027" r="3.62461739"></circle>
                        <circle id="Oval-4" cx="52.6826047" cy="125.336027" r="3.62461739"></circle>
                        <circle id="Oval-4" cx="85.3879295" cy="125.336027" r="3.62461739"></circle>
                        <circle id="Oval-4" cx="3.62461739" cy="138.638901" r="3.62461739"></circle>
                        <circle id="Oval-4" cx="19.9772798" cy="138.638901" r="3.62461739"></circle>
                        <circle id="Oval-4" cx="36.3299422" cy="138.638901" r="3.62461739"></circle>
                        <circle id="Oval-4" cx="69.0352671" cy="138.638901" r="3.62461739"></circle>
                        <circle id="Oval-4" cx="101.740592" cy="138.638901" r="3.62461739"></circle>
                        <circle id="Oval-4" cx="52.6826047" cy="138.638901" r="3.62461739"></circle>
                        <circle id="Oval-4" cx="85.3879295" cy="138.638901" r="3.62461739"></circle>
                        <circle id="Oval-4" cx="3.62461739" cy="152.313674" r="3.62461739"></circle>
                        <circle id="Oval-4" cx="19.9772798" cy="152.313674" r="3.62461739"></circle>
                        <circle id="Oval-4" cx="36.3299422" cy="152.313674" r="3.62461739"></circle>
                        <circle id="Oval-4" cx="69.0352671" cy="152.313674" r="3.62461739"></circle>
                        <circle id="Oval-4" cx="101.740592" cy="152.313674" r="3.62461739"></circle>
                        <circle id="Oval-4" cx="52.6826047" cy="152.313674" r="3.62461739"></circle>
                        <circle id="Oval-4" cx="85.3879295" cy="152.313674" r="3.62461739"></circle>
                        <circle id="Oval-4" cx="3.62461739" cy="165.742598" r="3.62461739"></circle>
                        <circle id="Oval-4" cx="19.9772798" cy="165.742598" r="3.62461739"></circle>
                        <circle id="Oval-4" cx="36.3299422" cy="165.742598" r="3.62461739"></circle>
                        <circle id="Oval-4" cx="69.0352671" cy="165.742598" r="3.62461739"></circle>
                        <circle id="Oval-4" cx="101.740592" cy="165.742598" r="3.62461739"></circle>
                        <circle id="Oval-4" cx="52.6826047" cy="165.742598" r="3.62461739"></circle>
                        <circle id="Oval-4" cx="85.3879295" cy="165.742598" r="3.62461739"></circle>
                        <circle id="Oval-4" cx="3.62461739" cy="179.41737" r="3.62461739"></circle>
                        <circle id="Oval-4" cx="19.9772798" cy="179.41737" r="3.62461739"></circle>
                        <circle id="Oval-4" cx="36.3299422" cy="179.41737" r="3.62461739"></circle>
                        <circle id="Oval-4" cx="69.0352671" cy="179.41737" r="3.62461739"></circle>
                        <circle id="Oval-4" cx="101.740592" cy="179.41737" r="3.62461739"></circle>
                        <circle id="Oval-4" cx="52.6826047" cy="179.41737" r="3.62461739"></circle>
                        <circle id="Oval-4" cx="85.3879295" cy="179.41737" r="3.62461739"></circle>
                        <circle id="Oval-4" cx="3.62461739" cy="192.720244" r="3.62461739"></circle>
                        <circle id="Oval-4" cx="19.9772798" cy="192.720244" r="3.62461739"></circle>
                        <circle id="Oval-4" cx="36.3299422" cy="192.720244" r="3.62461739"></circle>
                        <circle id="Oval-4" cx="69.0352671" cy="192.720244" r="3.62461739"></circle>
                        <circle id="Oval-4" cx="101.740592" cy="192.720244" r="3.62461739"></circle>
                        <circle id="Oval-4" cx="52.6826047" cy="192.720244" r="3.62461739"></circle>
                        <circle id="Oval-4" cx="85.3879295" cy="192.720244" r="3.62461739"></circle>
                        <circle id="Oval-4" cx="3.62461739" cy="206.395017" r="3.62461739"></circle>
                        <circle id="Oval-4" cx="19.9772798" cy="206.395017" r="3.62461739"></circle>
                        <circle id="Oval-4" cx="36.3299422" cy="206.395017" r="3.62461739"></circle>
                        <circle id="Oval-4" cx="69.0352671" cy="206.395017" r="3.62461739"></circle>
                        <circle id="Oval-4" cx="101.740592" cy="206.395017" r="3.62461739"></circle>
                        <circle id="Oval-4" cx="52.6826047" cy="206.395017" r="3.62461739"></circle>
                        <circle id="Oval-4" cx="85.3879295" cy="206.395017" r="3.62461739"></circle>
                    </g>
                </g>
                <g id="Group-9" transform="translate(0.000000, 121.711409)"></g>
                <g id="Group-9" transform="translate(0.000000, 135.014284)"></g>
                <g id="Group-9" transform="translate(0.000000, 148.689056)"></g>
                <g id="Group-9" transform="translate(0.000000, 162.117980)"></g>
                <g id="Group-9" transform="translate(0.000000, 175.792753)"></g>
                <g id="Group-9" transform="translate(0.000000, 189.095627)"></g>
                <g id="Group-9" transform="translate(0.000000, 202.770400)"></g>
            </g>
        </g>
    </g>
</svg>