<?xml version="1.0" encoding="UTF-8"?>
<svg width="16px" height="15px" viewBox="0 0 16 15" version="1.1" xmlns="http://www.w3.org/2000/svg" xmlns:xlink="http://www.w3.org/1999/xlink">
    <!-- Generator: Sketch 45.2 (43514) - http://www.bohemiancoding.com/sketch -->
    <title>K</title>
    <desc>Created with Sketch.</desc>
    <defs></defs>
    <g id="Page-1" stroke="none" stroke-width="1" fill="none" fill-rule="evenodd">
        <g id="Desktop-HD-Copy" transform="translate(-915.000000, -355.000000)" fill="#263657">
            <g id="Group-3" transform="translate(337.000000, 287.678089)">
                <g id="other" transform="translate(570.000000, 57.366967)">
                    <path d="M9.00195312,17.7119141 C8.87890563,17.2431617 8.81591798,16.7744164 8.81298828,16.3056641 C8.81005858,15.8369117 8.87304623,15.3652367 9.00195312,14.890625 C9.24804811,13.9472609 9.72265273,13.124027 10.4257812,12.4208984 C10.958987,11.8994115 11.559567,11.5024428 12.2275391,11.2299805 C12.8955112,10.9575182 13.5869105,10.8212891 14.3017578,10.8212891 C15.0166051,10.8212891 15.7094693,10.9575182 16.3803711,11.2299805 C17.0512729,11.5024428 17.6533176,11.8994115 18.1865234,12.4208984 C18.7783233,13.0185577 19.208983,13.7040977 19.4785156,14.4775391 C19.6835948,15.0751983 19.7861328,15.6787079 19.7861328,16.2880859 C19.7861328,16.4755869 19.7773438,16.663085 19.7597656,16.8505859 C19.677734,17.6533243 19.428713,18.4033168 19.0126953,19.1005859 C18.9892577,19.217774 18.9599611,19.3027341 18.9248047,19.3554688 L22.8359375,23.2578125 C22.988282,23.4160164 23.0703124,23.5712883 23.0820312,23.7236328 L23.0820312,23.7939453 C23.0820312,23.9228522 23.058594,24.0283199 23.0117188,24.1103516 C22.9531247,24.2158208 22.8623053,24.3300775 22.7392578,24.453125 L22.5634766,24.6289062 C22.4404291,24.7519537 22.3261724,24.8427731 22.2207031,24.9013672 C22.1386715,24.9482424 22.0449224,24.9746093 21.9394531,24.9804688 C21.9160155,24.9804688 21.8867189,24.9775391 21.8515625,24.9716797 C21.699218,24.9541015 21.5468758,24.8691414 21.3945312,24.7167969 L17.4658203,20.796875 C17.4482421,20.8085938 17.4248048,20.8232421 17.3955078,20.8408203 C17.3662108,20.8583985 17.3427735,20.8730468 17.3251953,20.8847656 C16.4111282,21.4824249 15.4033258,21.78125 14.3017578,21.78125 C13.5869105,21.78125 12.8955112,21.6450209 12.2275391,21.3725586 C11.559567,21.1000963 10.958987,20.7031276 10.4257812,20.1816406 C9.72265273,19.4726527 9.24804811,18.6494187 9.00195312,17.7119141 Z M9.80175781,16.3144531 C9.80175781,16.9179718 9.91454965,17.4936496 10.1401367,18.0415039 C10.3657238,18.5893582 10.689451,19.0742166 11.1113281,19.4960938 C11.544924,19.9179709 12.0371066,20.2431629 12.5878906,20.4716797 C13.1386746,20.7001965 13.709958,20.8144531 14.3017578,20.8144531 C14.9052765,20.8144531 15.4809543,20.7001965 16.0288086,20.4716797 C16.5766629,20.2431629 17.0615213,19.9179709 17.4833984,19.4960938 C18.0634795,18.9160127 18.4560537,18.2392617 18.6611328,17.4658203 C18.7666021,17.0790996 18.8178711,16.6923847 18.8149414,16.3056641 C18.8120117,15.9189434 18.7607427,15.5322285 18.6611328,15.1455078 C18.4560537,14.3720664 18.0634795,13.6982451 17.4833984,13.1240234 C16.6162066,12.2392534 15.5556703,11.796875 14.3017578,11.796875 C13.7040986,11.796875 13.1298856,11.9111317 12.5791016,12.1396484 C12.0283176,12.3681652 11.5390646,12.6962869 11.1113281,13.1240234 C10.689451,13.5459005 10.3657238,14.0322238 10.1401367,14.5830078 C9.91454965,15.1337918 9.80175781,15.7109345 9.80175781,16.3144531 Z" id="K"></path>
                </g>
            </g>
        </g>
    </g>
</svg>