<?xml version="1.0" encoding="UTF-8"?>
<svg width="385px" height="304px" viewBox="0 0 385 304" version="1.1" xmlns="http://www.w3.org/2000/svg" xmlns:xlink="http://www.w3.org/1999/xlink">
    <!-- Generator: Sketch 45.2 (43514) - http://www.bohemiancoding.com/sketch -->
    <title>Group 13</title>
    <desc>Created with Sketch.</desc>
    <defs></defs>
    <g id="Page-1" stroke="none" stroke-width="1" fill="none" fill-rule="evenodd">
        <g id="Desktop-HD-Copy" transform="translate(-1035.000000, -1685.000000)">
            <g id="Group-13" transform="translate(1035.000000, 1685.000000)">
                <polygon id="Triangle" fill-opacity="0.5" fill="#F4F52D" points="212.171727 0.362695051 263.328345 303.944817 0 223.437263"></polygon>
                <g id="Group-11" opacity="0.5" transform="translate(269.622584, 152.153756) rotate(105.000000) translate(-269.622584, -152.153756) translate(216.622584, 46.653756)">
                    <g id="Group-9" fill="#2AC6D0">
                        <g id="Group-10">
                            <circle id="Oval-4" cx="3.62461739" cy="3.62461739" r="3.62461739"></circle>
                            <circle id="Oval-4" cx="19.9772798" cy="3.62461739" r="3.62461739"></circle>
                            <circle id="Oval-4" cx="36.3299422" cy="3.62461739" r="3.62461739"></circle>
                            <circle id="Oval-4" cx="69.0352671" cy="3.62461739" r="3.62461739"></circle>
                            <circle id="Oval-4" cx="101.740592" cy="3.62461739" r="3.62461739"></circle>
                            <circle id="Oval-4" cx="52.6826047" cy="3.62461739" r="3.62461739"></circle>
                            <circle id="Oval-4" cx="85.3879295" cy="3.62461739" r="3.62461739"></circle>
                            <circle id="Oval-4" cx="3.62461739" cy="17.2993898" r="3.62461739"></circle>
                            <circle id="Oval-4" cx="19.9772798" cy="17.2993898" r="3.62461739"></circle>
                            <circle id="Oval-4" cx="36.3299422" cy="17.2993898" r="3.62461739"></circle>
                            <circle id="Oval-4" cx="69.0352671" cy="17.2993898" r="3.62461739"></circle>
                            <circle id="Oval-4" cx="101.740592" cy="17.2993898" r="3.62461739"></circle>
                            <circle id="Oval-4" cx="52.6826047" cy="17.2993898" r="3.62461739"></circle>
                            <circle id="Oval-4" cx="85.3879295" cy="17.2993898" r="3.62461739"></circle>
                            <circle id="Oval-4" cx="3.62461739" cy="30.6022642" r="3.62461739"></circle>
                            <circle id="Oval-4" cx="19.9772798" cy="30.6022642" r="3.62461739"></circle>
                            <circle id="Oval-4" cx="36.3299422" cy="30.6022642" r="3.62461739"></circle>
                            <circle id="Oval-4" cx="69.0352671" cy="30.6022642" r="3.62461739"></circle>
                            <circle id="Oval-4" cx="101.740592" cy="30.6022642" r="3.62461739"></circle>
                            <circle id="Oval-4" cx="52.6826047" cy="30.6022642" r="3.62461739"></circle>
                            <circle id="Oval-4" cx="85.3879295" cy="30.6022642" r="3.62461739"></circle>
                            <circle id="Oval-4" cx="3.62461739" cy="44.2770367" r="3.62461739"></circle>
                            <circle id="Oval-4" cx="19.9772798" cy="44.2770367" r="3.62461739"></circle>
                            <circle id="Oval-4" cx="36.3299422" cy="44.2770367" r="3.62461739"></circle>
                            <circle id="Oval-4" cx="69.0352671" cy="44.2770367" r="3.62461739"></circle>
                            <circle id="Oval-4" cx="101.740592" cy="44.2770367" r="3.62461739"></circle>
                            <circle id="Oval-4" cx="52.6826047" cy="44.2770367" r="3.62461739"></circle>
                            <circle id="Oval-4" cx="85.3879295" cy="44.2770367" r="3.62461739"></circle>
                            <circle id="Oval-4" cx="3.62461739" cy="57.7059606" r="3.62461739"></circle>
                            <circle id="Oval-4" cx="19.9772798" cy="57.7059606" r="3.62461739"></circle>
                            <circle id="Oval-4" cx="36.3299422" cy="57.7059606" r="3.62461739"></circle>
                            <circle id="Oval-4" cx="69.0352671" cy="57.7059606" r="3.62461739"></circle>
                            <circle id="Oval-4" cx="101.740592" cy="57.7059606" r="3.62461739"></circle>
                            <circle id="Oval-4" cx="52.6826047" cy="57.7059606" r="3.62461739"></circle>
                            <circle id="Oval-4" cx="85.3879295" cy="57.7059606" r="3.62461739"></circle>
                            <circle id="Oval-4" cx="3.62461739" cy="71.3807331" r="3.62461739"></circle>
                            <circle id="Oval-4" cx="19.9772798" cy="71.3807331" r="3.62461739"></circle>
                            <circle id="Oval-4" cx="36.3299422" cy="71.3807331" r="3.62461739"></circle>
                            <circle id="Oval-4" cx="69.0352671" cy="71.3807331" r="3.62461739"></circle>
                            <circle id="Oval-4" cx="101.740592" cy="71.3807331" r="3.62461739"></circle>
                            <circle id="Oval-4" cx="52.6826047" cy="71.3807331" r="3.62461739"></circle>
                            <circle id="Oval-4" cx="85.3879295" cy="71.3807331" r="3.62461739"></circle>
                            <circle id="Oval-4" cx="3.62461739" cy="84.6836075" r="3.62461739"></circle>
                            <circle id="Oval-4" cx="19.9772798" cy="84.6836075" r="3.62461739"></circle>
                            <circle id="Oval-4" cx="36.3299422" cy="84.6836075" r="3.62461739"></circle>
                            <circle id="Oval-4" cx="69.0352671" cy="84.6836075" r="3.62461739"></circle>
                            <circle id="Oval-4" cx="101.740592" cy="84.6836075" r="3.62461739"></circle>
                            <circle id="Oval-4" cx="52.6826047" cy="84.6836075" r="3.62461739"></circle>
                            <circle id="Oval-4" cx="85.3879295" cy="84.6836075" r="3.62461739"></circle>
                            <circle id="Oval-4" cx="3.62461739" cy="98.3583799" r="3.62461739"></circle>
                            <circle id="Oval-4" cx="19.9772798" cy="98.3583799" r="3.62461739"></circle>
                            <circle id="Oval-4" cx="36.3299422" cy="98.3583799" r="3.62461739"></circle>
                            <circle id="Oval-4" cx="69.0352671" cy="98.3583799" r="3.62461739"></circle>
                            <circle id="Oval-4" cx="101.740592" cy="98.3583799" r="3.62461739"></circle>
                            <circle id="Oval-4" cx="52.6826047" cy="98.3583799" r="3.62461739"></circle>
                            <circle id="Oval-4" cx="85.3879295" cy="98.3583799" r="3.62461739"></circle>
                            <circle id="Oval-4" cx="3.62461739" cy="111.661254" r="3.62461739"></circle>
                            <circle id="Oval-4" cx="19.9772798" cy="111.661254" r="3.62461739"></circle>
                            <circle id="Oval-4" cx="36.3299422" cy="111.661254" r="3.62461739"></circle>
                            <circle id="Oval-4" cx="69.0352671" cy="111.661254" r="3.62461739"></circle>
                            <circle id="Oval-4" cx="101.740592" cy="111.661254" r="3.62461739"></circle>
                            <circle id="Oval-4" cx="52.6826047" cy="111.661254" r="3.62461739"></circle>
                            <circle id="Oval-4" cx="85.3879295" cy="111.661254" r="3.62461739"></circle>
                            <circle id="Oval-4" cx="3.62461739" cy="125.336027" r="3.62461739"></circle>
                            <circle id="Oval-4" cx="19.9772798" cy="125.336027" r="3.62461739"></circle>
                            <circle id="Oval-4" cx="36.3299422" cy="125.336027" r="3.62461739"></circle>
                            <circle id="Oval-4" cx="69.0352671" cy="125.336027" r="3.62461739"></circle>
                            <circle id="Oval-4" cx="101.740592" cy="125.336027" r="3.62461739"></circle>
                            <circle id="Oval-4" cx="52.6826047" cy="125.336027" r="3.62461739"></circle>
                            <circle id="Oval-4" cx="85.3879295" cy="125.336027" r="3.62461739"></circle>
                            <circle id="Oval-4" cx="3.62461739" cy="138.638901" r="3.62461739"></circle>
                            <circle id="Oval-4" cx="19.9772798" cy="138.638901" r="3.62461739"></circle>
                            <circle id="Oval-4" cx="36.3299422" cy="138.638901" r="3.62461739"></circle>
                            <circle id="Oval-4" cx="69.0352671" cy="138.638901" r="3.62461739"></circle>
                            <circle id="Oval-4" cx="101.740592" cy="138.638901" r="3.62461739"></circle>
                            <circle id="Oval-4" cx="52.6826047" cy="138.638901" r="3.62461739"></circle>
                            <circle id="Oval-4" cx="85.3879295" cy="138.638901" r="3.62461739"></circle>
                            <circle id="Oval-4" cx="3.62461739" cy="152.313674" r="3.62461739"></circle>
                            <circle id="Oval-4" cx="19.9772798" cy="152.313674" r="3.62461739"></circle>
                            <circle id="Oval-4" cx="36.3299422" cy="152.313674" r="3.62461739"></circle>
                            <circle id="Oval-4" cx="69.0352671" cy="152.313674" r="3.62461739"></circle>
                            <circle id="Oval-4" cx="101.740592" cy="152.313674" r="3.62461739"></circle>
                            <circle id="Oval-4" cx="52.6826047" cy="152.313674" r="3.62461739"></circle>
                            <circle id="Oval-4" cx="85.3879295" cy="152.313674" r="3.62461739"></circle>
                            <circle id="Oval-4" cx="3.62461739" cy="165.742598" r="3.62461739"></circle>
                            <circle id="Oval-4" cx="19.9772798" cy="165.742598" r="3.62461739"></circle>
                            <circle id="Oval-4" cx="36.3299422" cy="165.742598" r="3.62461739"></circle>
                            <circle id="Oval-4" cx="69.0352671" cy="165.742598" r="3.62461739"></circle>
                            <circle id="Oval-4" cx="101.740592" cy="165.742598" r="3.62461739"></circle>
                            <circle id="Oval-4" cx="52.6826047" cy="165.742598" r="3.62461739"></circle>
                            <circle id="Oval-4" cx="85.3879295" cy="165.742598" r="3.62461739"></circle>
                            <circle id="Oval-4" cx="3.62461739" cy="179.41737" r="3.62461739"></circle>
                            <circle id="Oval-4" cx="19.9772798" cy="179.41737" r="3.62461739"></circle>
                            <circle id="Oval-4" cx="36.3299422" cy="179.41737" r="3.62461739"></circle>
                            <circle id="Oval-4" cx="69.0352671" cy="179.41737" r="3.62461739"></circle>
                            <circle id="Oval-4" cx="101.740592" cy="179.41737" r="3.62461739"></circle>
                            <circle id="Oval-4" cx="52.6826047" cy="179.41737" r="3.62461739"></circle>
                            <circle id="Oval-4" cx="85.3879295" cy="179.41737" r="3.62461739"></circle>
                            <circle id="Oval-4" cx="3.62461739" cy="192.720244" r="3.62461739"></circle>
                            <circle id="Oval-4" cx="19.9772798" cy="192.720244" r="3.62461739"></circle>
                            <circle id="Oval-4" cx="36.3299422" cy="192.720244" r="3.62461739"></circle>
                            <circle id="Oval-4" cx="69.0352671" cy="192.720244" r="3.62461739"></circle>
                            <circle id="Oval-4" cx="101.740592" cy="192.720244" r="3.62461739"></circle>
                            <circle id="Oval-4" cx="52.6826047" cy="192.720244" r="3.62461739"></circle>
                            <circle id="Oval-4" cx="85.3879295" cy="192.720244" r="3.62461739"></circle>
                            <circle id="Oval-4" cx="3.62461739" cy="206.395017" r="3.62461739"></circle>
                            <circle id="Oval-4" cx="19.9772798" cy="206.395017" r="3.62461739"></circle>
                            <circle id="Oval-4" cx="36.3299422" cy="206.395017" r="3.62461739"></circle>
                            <circle id="Oval-4" cx="69.0352671" cy="206.395017" r="3.62461739"></circle>
                            <circle id="Oval-4" cx="101.740592" cy="206.395017" r="3.62461739"></circle>
                            <circle id="Oval-4" cx="52.6826047" cy="206.395017" r="3.62461739"></circle>
                            <circle id="Oval-4" cx="85.3879295" cy="206.395017" r="3.62461739"></circle>
                        </g>
                    </g>
                    <g id="Group-9" transform="translate(0.000000, 13.674772)"></g>
                    <g id="Group-9" transform="translate(0.000000, 26.977647)"></g>
                    <g id="Group-9" transform="translate(0.000000, 40.652419)"></g>
                    <g id="Group-9" transform="translate(0.000000, 54.081343)"></g>
                    <g id="Group-9" transform="translate(0.000000, 67.756116)"></g>
                    <g id="Group-9" transform="translate(0.000000, 81.058990)"></g>
                    <g id="Group-9" transform="translate(0.000000, 94.733763)"></g>
                    <g id="Group-9" transform="translate(0.000000, 108.036637)"></g>
                    <g id="Group-9" transform="translate(0.000000, 121.711409)"></g>
                    <g id="Group-9" transform="translate(0.000000, 135.014284)"></g>
                    <g id="Group-9" transform="translate(0.000000, 148.689056)"></g>
                    <g id="Group-9" transform="translate(0.000000, 162.117980)"></g>
                    <g id="Group-9" transform="translate(0.000000, 175.792753)"></g>
                    <g id="Group-9" transform="translate(0.000000, 189.095627)"></g>
                    <g id="Group-9" transform="translate(0.000000, 202.770400)"></g>
                </g>
            </g>
        </g>
    </g>
</svg>