<?xml version="1.0" encoding="UTF-8"?>
<svg width="18px" height="29px" viewBox="0 0 18 29" version="1.1" xmlns="http://www.w3.org/2000/svg" xmlns:xlink="http://www.w3.org/1999/xlink">
    <!-- Generator: Sketch 45.2 (43514) - http://www.bohemiancoding.com/sketch -->
    <title>$</title>
    <desc>Created with Sketch.</desc>
    <defs></defs>
    <g id="Page-1" stroke="none" stroke-width="1" fill="none" fill-rule="evenodd" fill-opacity="0.5">
        <g id="Desktop-HD-Copy" transform="translate(-363.000000, -503.000000)" fill="#CD69EB">
            <g id="Group-3" transform="translate(337.000000, 287.678089)">
                <path d="M26.484375,224.773217 L26.484375,224.429467 C26.484375,222.887792 26.8645795,221.460723 27.625,220.148217 C28.3854205,218.83571 29.4218684,217.796658 30.734375,217.031029 C32.0468816,216.2654 33.4739506,215.882592 35.015625,215.882592 C36.5572994,215.882592 37.9843684,216.2654 39.296875,217.031029 C40.6093816,217.796658 41.6484337,218.83571 42.4140625,220.148217 C43.1796913,221.460723 43.5625,222.887792 43.5625,224.429467 L43.5625,224.991967 C43.5416666,225.0128 43.53125,225.059674 43.53125,225.132592 L43.53125,225.351342 C43.4062494,226.507597 43.0911484,227.866959 42.5859375,229.429467 C42.0807266,230.991974 41.4557329,232.585708 40.7109375,234.210717 C39.9661421,235.835725 39.26042,237.30446 38.59375,238.616967 C37.92708,239.929473 37.2395869,241.215919 36.53125,242.476342 C36.3958327,242.747176 36.1901055,242.96332 35.9140625,243.124779 C35.6380195,243.286238 35.3385433,243.366967 35.015625,243.366967 C34.6927067,243.366967 34.3984388,243.286238 34.1328125,243.124779 C33.8671862,242.96332 33.6614591,242.747176 33.515625,242.476342 C32.8072881,241.215919 32.119795,239.929473 31.453125,238.616967 C30.786455,237.30446 30.0807329,235.835725 29.3359375,234.210717 C28.5911421,232.585708 27.9661484,230.991974 27.4609375,229.429467 C26.9557266,227.866959 26.6406256,226.507597 26.515625,225.351342 L26.515625,224.991967 C26.4947916,224.9503 26.484375,224.877384 26.484375,224.773217 Z M28.203125,224.710717 C28.203125,224.79405 28.2135416,224.846133 28.234375,224.866967 L28.234375,225.195092 C28.3593756,226.299264 28.6874973,227.637792 29.21875,229.210717 C29.7500027,230.783641 30.3958295,232.385188 31.15625,234.015404 C31.9166705,235.64562 32.6015595,237.057065 33.2109375,238.249779 C33.8203155,239.442493 34.421872,240.570086 35.015625,241.632592 C35.6302114,240.538836 36.2369762,239.408639 36.8359375,238.241967 C37.4348988,237.075294 38.1197878,235.671662 38.890625,234.031029 C39.6614622,232.390396 40.3124973,230.783641 40.84375,229.210717 C41.3750027,227.637792 41.6979161,226.299264 41.8125,225.195092 L41.8125,224.991967 C41.8125,224.9503 41.8229166,224.91905 41.84375,224.898217 L41.84375,224.429467 C41.84375,222.554457 41.17709,220.947702 39.84375,219.609154 C38.51041,218.270606 36.9010511,217.601342 35.015625,217.601342 C33.1406156,217.601342 31.536465,218.270606 30.203125,219.609154 C28.869785,220.947702 28.203125,222.554457 28.203125,224.429467 L28.203125,224.710717 Z M31.890625,224.804467 C31.890625,223.939879 32.1953095,223.200303 32.8046875,222.585717 C33.4140655,221.97113 34.1510373,221.663842 35.015625,221.663842 C35.8802127,221.663842 36.6197886,221.97113 37.234375,222.585717 C37.8489614,223.200303 38.15625,223.939879 38.15625,224.804467 C38.15625,225.669054 37.8489614,226.40863 37.234375,227.023217 C36.6197886,227.637803 35.8802127,227.945092 35.015625,227.945092 C34.1510373,227.945092 33.4140655,227.637803 32.8046875,227.023217 C32.1953095,226.40863 31.890625,225.669054 31.890625,224.804467 Z M33.609375,224.804467 C33.609375,225.189885 33.7473945,225.520611 34.0234375,225.796654 C34.2994805,226.072697 34.6302064,226.210717 35.015625,226.210717 C35.4010436,226.210717 35.7343736,226.072697 36.015625,225.796654 C36.2968764,225.520611 36.4375,225.189885 36.4375,224.804467 C36.4375,224.419048 36.2968764,224.088322 36.015625,223.812279 C35.7343736,223.536236 35.4010436,223.398217 35.015625,223.398217 C34.6302064,223.398217 34.2994805,223.536236 34.0234375,223.812279 C33.7473945,224.088322 33.609375,224.419048 33.609375,224.804467 Z" id="$"></path>
            </g>
        </g>
    </g>
</svg>