<?xml version="1.0" encoding="UTF-8"?>
<svg width="272px" height="57px" viewBox="0 0 272 57" version="1.1" xmlns="http://www.w3.org/2000/svg" xmlns:xlink="http://www.w3.org/1999/xlink">
    <!-- Generator: Sketch 45.2 (43514) - http://www.bohemiancoding.com/sketch -->
    <title>Logo</title>
    <desc>Created with Sketch.</desc>
    <defs></defs>
    <g id="Page-1" stroke="none" stroke-width="1" fill="none" fill-rule="evenodd">
        <g id="Desktop-HD-Copy" transform="translate(-587.000000, -139.000000)" fill="#2AC6D0">
            <g id="Logo" transform="translate(587.000000, 139.727152)">
                <path d="M15.4363859,20.7688935 C15.4363859,18.0964612 14.9614712,16.1774372 14.0134863,15.0155101 C13.063657,13.8526608 11.8814423,13.2707751 10.4640757,13.2707751 C9.44877269,13.2707751 8.54597379,13.3980338 7.75844542,13.651629 C7.08434327,13.8692598 6.38626485,14.2086163 5.66328799,14.6696984 C5.43182474,14.8163226 5.29257792,15.0800616 5.29257792,15.3539444 L5.29257792,27.1023184 C5.29257792,27.3992553 5.45211235,27.6832819 5.7149292,27.8197622 C6.90267689,28.4385345 8.1651199,28.7474596 9.50225823,28.7474596 C13.4574212,28.7474596 15.4363859,26.0879376 15.4363859,20.7688935 M16.0975777,10.6850262 C17.5813402,11.5537051 18.7377343,12.843813 19.5658379,14.5544279 C20.3939415,16.2650428 20.8089155,18.3362239 20.8089155,20.7688935 C20.8089155,23.4145831 20.3275457,25.6268554 19.3657282,27.4038661 C18.4029886,29.1827212 17.1128807,30.4986497 15.4963266,31.3534961 C13.8788503,32.2083424 12.0686416,32.6371489 10.0638563,32.6371489 C8.26655798,32.6371489 6.58821885,32.1705337 5.02883891,31.2363812 C4.62493092,30.993852 4.09837507,31.1745962 3.90379839,31.6034026 C3.77285105,31.8911179 3.48605793,32.0755508 3.16975556,32.0755508 L0.805326137,32.0755508 C0.360842915,32.0755508 0.000276649308,31.7149845 0.000276649308,31.2695791 L0.000276649308,0.805879435 C0.000276649308,0.360474049 0.360842915,-9.22164361e-05 0.805326137,-9.22164361e-05 L4.48660627,-9.22164361e-05 C4.93201165,-9.22164361e-05 5.29257792,0.360474049 5.29257792,0.805879435 L5.29257792,9.72228664 C5.29257792,10.3207713 5.91964968,10.700703 6.45634934,10.4341975 C7.86726082,9.73243045 9.37776604,9.38200799 10.9860207,9.38200799 C12.9105777,9.38200799 14.6138153,9.81726957 16.0975777,10.6850262" id="Fill-1"></path>
                <path d="M39.7525691,26.7629619 C40.700554,25.4138354 41.1763908,23.4957335 41.1763908,21.0095784 C41.1763908,18.5501661 40.695021,16.6458967 39.7332036,15.295848 C38.770464,13.9467216 37.3272768,13.2707751 35.4027198,13.2707751 C33.4781628,13.2707751 32.0349755,13.9467216 31.0722359,15.295848 C30.1104185,16.6458967 29.6281265,18.5501661 29.6281265,21.0095784 C29.6281265,23.4957335 30.1030412,25.4138354 31.0519483,26.7629619 C32.0008554,28.1130105 33.45142,28.7871126 35.4027198,28.7871126 C37.3530974,28.7871126 38.8036619,28.1130105 39.7525691,26.7629619 M29.3081355,31.1330988 C27.6242634,30.1048855 26.3673534,28.7142617 25.5392498,26.9630715 C24.710224,25.2128036 24.2961722,23.2412162 24.2961722,21.0492315 C24.2961722,18.8037613 24.710224,16.8063533 25.5392498,15.0551631 C26.3673534,13.3048952 27.6178082,11.9216486 29.2878479,10.9054235 C30.9588097,9.89012056 33.0097033,9.38200799 35.4423728,9.38200799 C37.8482997,9.38200799 39.8862829,9.91040817 41.5572447,10.9653642 C43.2272844,12.0221646 44.4841944,13.4312317 45.3261305,15.1953321 C46.1680665,16.9594326 46.5885735,18.8839896 46.5885735,20.9690032 C46.5885735,23.0807596 46.1680665,25.0256042 45.3261305,26.8026149 C44.4841944,28.5805478 43.2272844,30.0043696 41.5572447,31.0731581 C39.8862829,32.1419466 37.8482997,32.6768019 35.4423728,32.6768019 C33.0373682,32.6768019 30.9920076,32.161312 29.3081355,31.1330988" id="Fill-3"></path>
                <path d="M64.5916194,13.6500613 C64.5916194,14.0862451 64.241197,14.4320567 63.8050132,14.4514221 C62.7841773,14.4966082 61.8103717,14.630322 60.8835965,14.8553301 C59.8397065,15.107081 58.714666,15.5690853 57.5093971,16.240421 C57.2548798,16.3824343 57.093501,16.6600058 57.093501,16.9514097 L57.093501,31.2698558 C57.093501,31.714339 56.7338569,32.0749052 56.2884515,32.0749052 L52.6062492,32.0749052 C52.161766,32.0749052 51.8011997,31.714339 51.8011997,31.2698558 L51.8011997,10.7885853 C51.8011997,10.3441021 52.161766,9.98353581 52.6062492,9.98353581 L55.1846208,9.98353581 C55.5341211,9.98353581 55.8439683,10.2085439 55.9509394,10.5405231 L56.285685,11.5742693 C56.4581298,12.1045138 57.1082556,12.3009348 57.5453616,11.9560454 C58.574497,11.1445407 59.5861113,10.5479004 60.5820488,10.1633579 C61.5872079,9.77604883 62.6264872,9.53997475 63.6980422,9.45697996 C64.1766455,9.41917122 64.5916194,9.77973748 64.5916194,10.259263 L64.5916194,13.6500613 Z" id="Fill-5"></path>
                <path d="M75.0163187,14.2134115 C74.3763366,14.805441 73.8765235,15.5551607 73.5178016,16.4634926 C73.3103146,16.9882041 73.7123783,17.5608681 74.2758207,17.5608681 L82.3936336,17.5608681 L82.3936336,17.0794984 C82.3936336,15.7709471 82.02569,14.7611771 81.290725,14.0529549 C80.55576,13.3447327 79.6123859,12.9906216 78.4633691,12.9906216 C77.0469246,12.9906216 75.8979078,13.3982182 75.0163187,14.2134115 M82.2931177,28.0265115 C83.1341315,27.6318251 83.9945109,27.0997363 84.8761,26.430245 C85.2781637,26.1259307 85.8600494,26.2743992 86.0786024,26.7281041 L86.9777126,28.5936426 C87.1354027,28.9210109 87.0570187,29.3239967 86.7803694,29.560993 C85.6442629,30.5329542 84.483258,31.278063 83.2955103,31.7944751 C81.9454617,32.3828159 80.4146688,32.6769864 78.7049761,32.6769864 C76.2446416,32.6769864 74.1872929,32.1614965 72.5301636,31.1332832 C70.872112,30.1041478 69.6364118,28.7144461 68.8212185,26.963256 C68.005103,25.212988 67.5984286,23.2414006 67.5984286,21.0494159 C67.5984286,18.8039457 68.0124804,16.8065377 68.8415061,15.0553476 C69.6696097,13.3050796 70.9126873,11.9218331 72.5707388,10.905608 C74.2278681,9.89030499 76.2713844,9.38219243 78.7049761,9.38219243 C81.4567146,9.38219243 83.6164235,10.1503553 85.1794921,11.6876033 C86.7434829,13.2248513 87.5383885,15.3827159 87.5651313,18.1630415 C87.5651313,18.8749524 87.4692262,19.6569477 87.277416,20.5090276 C87.1953434,20.8723604 86.8624421,21.1296442 86.4889655,21.1296442 L73.6459824,21.1296442 C73.1895111,21.1296442 72.8123459,21.5104981 72.8390886,21.9651251 C72.95897,24.0215517 73.4440284,25.633495 74.294264,26.8027994 C75.2570036,28.1261052 76.7398439,28.7872971 78.7446292,28.7872971 C80.028282,28.7872971 81.2104967,28.5337019 82.2931177,28.0265115" id="Fill-7"></path>
                <path d="M97.8687504,27.0034623 C98.8047472,28.1663116 99.9943392,28.7472751 101.437526,28.7472751 C102.452829,28.7472751 103.354706,28.6144835 104.144079,28.3470558 C104.812648,28.1192812 105.495972,27.787302 106.194972,27.3483518 C106.42828,27.2017277 106.569371,26.9370665 106.569371,26.6613394 L106.569371,14.3310797 C106.569371,13.9659026 106.329608,13.6330013 105.973653,13.5490843 C105.191658,13.3637293 104.334967,13.2705907 103.401737,13.2705907 C101.049295,13.2705907 99.3054824,13.9594475 98.1693759,15.3362388 C97.0332694,16.7130302 96.4661384,18.6836955 96.4661384,21.2500789 C96.4661384,23.9234334 96.9327535,25.8406131 97.8687504,27.0034623 M111.861672,0.805695002 L111.861672,31.2693947 C111.861672,31.7148001 111.501106,32.0753663 111.056623,32.0753663 L108.472718,32.0753663 C108.126907,32.0753663 107.818904,31.8540469 107.709166,31.5248342 L107.679657,31.4344621 C107.512745,30.9355712 106.917949,30.7280842 106.478999,31.0194881 C104.818181,32.124241 102.963708,32.6766175 100.916504,32.6766175 C98.9919466,32.6766175 97.2877868,32.2358229 95.8040244,31.3533116 C94.3202619,30.4717225 93.1638678,29.1751594 92.3357642,27.4645445 C91.5076606,25.7548518 91.0926866,23.6827485 91.0926866,21.2500789 C91.0926866,17.1870227 92.1891401,14.192755 94.3811247,12.268198 C96.5721873,10.3445632 99.4862267,9.38182356 103.121399,9.38182356 C104.019587,9.38182356 104.851379,9.45375238 105.61862,9.59761002 C106.113822,9.69167079 106.569371,9.31542773 106.569371,8.81100382 L106.569371,0.805695002 C106.569371,0.360289616 106.929015,-0.000276649308 107.374421,-0.000276649308 L111.056623,-0.000276649308 C111.501106,-0.000276649308 111.861672,0.360289616 111.861672,0.805695002" id="Fill-9"></path>
                <path d="M136.499691,11.4869404 C137.502084,12.8895524 138.003741,14.9146253 138.003741,17.561237 L138.003741,31.2701324 C138.003741,31.7146156 137.643175,32.0751819 137.198692,32.0751819 L133.557064,32.0751819 C133.111659,32.0751819 132.752015,31.7146156 132.752015,31.2701324 L132.752015,18.1624882 C132.752015,16.3983878 132.503953,15.1553102 132.009673,14.4341777 C131.51447,13.712123 130.640259,13.3506345 129.383349,13.3506345 C127.804603,13.3506345 126.167761,13.9500414 124.471901,15.1479329 C124.258881,15.2982457 124.1307,15.5518409 124.1307,15.8128134 L124.1307,31.2701324 C124.1307,31.7146156 123.770134,32.0751819 123.325651,32.0751819 L119.643449,32.0751819 C119.198043,32.0751819 118.838399,31.7146156 118.838399,31.2701324 L118.838399,10.7888619 C118.838399,10.3443787 119.198043,9.98381246 119.643449,9.98381246 L122.216287,9.98381246 C122.568554,9.98381246 122.879323,10.2125092 122.985372,10.548177 L123.131996,11.0157144 C123.285998,11.5081501 123.863273,11.7423799 124.302223,11.4721857 C126.572592,10.0787954 128.800541,9.38163913 130.986992,9.38163913 C133.659425,9.38163913 135.497298,10.0834062 136.499691,11.4869404" id="Fill-11"></path>
                <path d="M158.510924,26.7629619 C159.458909,25.4138354 159.934746,23.4957335 159.934746,21.0095784 C159.934746,18.5501661 159.453376,16.6458967 158.491559,15.295848 C157.528819,13.9467216 156.085632,13.2707751 154.161075,13.2707751 C152.236518,13.2707751 150.793331,13.9467216 149.830591,15.295848 C148.868774,16.6458967 148.386482,18.5501661 148.386482,21.0095784 C148.386482,23.4957335 148.861396,25.4138354 149.810304,26.7629619 C150.759211,28.1130105 152.209775,28.7871126 154.161075,28.7871126 C156.111453,28.7871126 157.562017,28.1130105 158.510924,26.7629619 M148.066491,31.1330988 C146.382619,30.1048855 145.125709,28.7142617 144.297605,26.9630715 C143.468579,25.2128036 143.054527,23.2412162 143.054527,21.0492315 C143.054527,18.8037613 143.468579,16.8063533 144.297605,15.0551631 C145.125709,13.3048952 146.376163,11.9216486 148.046203,10.9054235 C149.717165,9.89012056 151.768058,9.38200799 154.200728,9.38200799 C156.606655,9.38200799 158.644638,9.91040817 160.3156,10.9653642 C161.98564,12.0221646 163.24255,13.4312317 164.084486,15.1953321 C164.926422,16.9594326 165.346929,18.8839896 165.346929,20.9690032 C165.346929,23.0807596 164.926422,25.0256042 164.084486,26.8026149 C163.24255,28.5805478 161.98564,30.0043696 160.3156,31.0731581 C158.644638,32.1419466 156.606655,32.6768019 154.200728,32.6768019 C151.795723,32.6768019 149.750363,32.161312 148.066491,31.1330988" id="Fill-13"></path>
                <path d="M201.592414,18.4234607 C202.580052,19.8260727 203.075255,21.8511456 203.075255,24.4977573 L203.075255,38.2066527 C203.075255,38.651136 202.715611,39.0117022 202.270205,39.0117022 L198.627656,39.0117022 C198.183173,39.0117022 197.822607,38.651136 197.822607,38.2066527 L197.822607,25.0990085 C197.822607,23.3349081 197.588377,22.0918305 197.120839,21.370698 C196.654224,20.6486433 195.804911,20.2871549 194.575666,20.2871549 C193.024585,20.2871549 191.30106,20.9962993 189.403246,22.4127437 L189.323018,22.2117119 C189.403246,22.9337666 189.442899,23.6954743 189.442899,24.4977573 L189.442899,38.2066527 C189.442899,38.651136 189.083255,39.0117022 188.63785,39.0117022 L184.996222,39.0117022 C184.551739,39.0117022 184.191173,38.651136 184.191173,38.2066527 L184.191173,25.0990085 C184.191173,23.3349081 183.956943,22.0918305 183.489406,21.370698 C183.020946,20.6486433 182.172555,20.2871549 180.94331,20.2871549 C179.463236,20.2871549 177.877114,20.9003942 176.185864,22.1231841 C175.976533,22.2753412 175.851118,22.5261699 175.851118,22.784376 L175.851118,38.2066527 C175.851118,38.651136 175.490552,39.0117022 175.046069,39.0117022 L171.363867,39.0117022 C170.918461,39.0117022 170.558817,38.651136 170.558817,38.2066527 L170.558817,17.7253823 C170.558817,17.280899 170.918461,16.9203328 171.363867,16.9203328 L173.936705,16.9203328 C174.288972,16.9203328 174.599741,17.1490295 174.70579,17.4846974 L174.851492,17.9503904 C175.006416,18.4446705 175.586457,18.6798224 176.028174,18.4096282 C178.306842,17.0153157 180.479461,16.3181595 182.547876,16.3181595 C184.070369,16.3181595 185.306992,16.5662217 186.255899,17.0595796 C186.973343,17.4349005 187.566295,17.9356357 188.031988,18.5627075 C188.286505,18.9057527 188.760497,18.980448 189.119219,18.7480625 C191.619207,17.1287419 193.971648,16.3181595 196.17931,16.3181595 C198.799179,16.3181595 200.602932,17.0199265 201.592414,18.4234607" id="Fill-15"></path>
                <path d="M223.583914,26.7629619 C224.531898,25.4138354 225.007735,23.4957335 225.007735,21.0095784 C225.007735,18.5501661 224.526365,16.6458967 223.564548,15.295848 C222.601808,13.9467216 221.158621,13.2707751 219.234064,13.2707751 C217.309507,13.2707751 215.86632,13.9467216 214.90358,15.295848 C213.941763,16.6458967 213.459471,18.5501661 213.459471,21.0095784 C213.459471,23.4957335 213.934386,25.4138354 214.883293,26.7629619 C215.8322,28.1130105 217.282764,28.7871126 219.234064,28.7871126 C221.184442,28.7871126 222.635006,28.1130105 223.583914,26.7629619 M213.13948,31.1330988 C211.455608,30.1048855 210.198698,28.7142617 209.370594,26.9630715 C208.541568,25.2128036 208.127517,23.2412162 208.127517,21.0492315 C208.127517,18.8037613 208.541568,16.8063533 209.370594,15.0551631 C210.198698,13.3048952 211.449153,11.9216486 213.119192,10.9054235 C214.790154,9.89012056 216.841048,9.38200799 219.273717,9.38200799 C221.679644,9.38200799 223.717627,9.91040817 225.388589,10.9653642 C227.058629,12.0221646 228.315539,13.4312317 229.157475,15.1953321 C229.999411,16.9594326 230.419918,18.8839896 230.419918,20.9690032 C230.419918,23.0807596 229.999411,25.0256042 229.157475,26.8026149 C228.315539,28.5805478 227.058629,30.0043696 225.388589,31.0731581 C223.717627,32.1419466 221.679644,32.6768019 219.273717,32.6768019 C216.868713,32.6768019 214.823352,32.161312 213.13948,31.1330988" id="Fill-17"></path>
                <path d="M248.421949,13.6500613 C248.421949,14.0862451 248.071527,14.4320567 247.635343,14.4514221 C246.614507,14.4966082 245.640702,14.630322 244.713927,14.8553301 C243.670037,15.107081 242.544996,15.5690853 241.339727,16.240421 C241.08521,16.3824343 240.923831,16.6600058 240.923831,16.9514097 L240.923831,31.2698558 C240.923831,31.714339 240.564187,32.0749052 240.118782,32.0749052 L236.436579,32.0749052 C235.992096,32.0749052 235.63153,31.714339 235.63153,31.2698558 L235.63153,10.7885853 C235.63153,10.3441021 235.992096,9.98353581 236.436579,9.98353581 L239.014951,9.98353581 C239.364451,9.98353581 239.674298,10.2085439 239.781269,10.5405231 L240.116015,11.5742693 C240.28846,12.1045138 240.938586,12.3009348 241.375692,11.9560454 C242.404827,11.1445407 243.416441,10.5479004 244.412379,10.1633579 C245.417538,9.77604883 246.456817,9.53997475 247.528372,9.45697996 C248.006976,9.41917122 248.421949,9.77973748 248.421949,10.259263 L248.421949,13.6500613 Z" id="Fill-19"></path>
                <path d="M258.846741,14.2134115 C258.206759,14.805441 257.706946,15.5551607 257.348224,16.4634926 C257.140737,16.9882041 257.542801,17.5608681 258.106243,17.5608681 L266.224056,17.5608681 L266.224056,17.0794984 C266.224056,15.7709471 265.856112,14.7611771 265.121147,14.0529549 C264.386182,13.3447327 263.442808,12.9906216 262.293791,12.9906216 C260.877347,12.9906216 259.72833,13.3982182 258.846741,14.2134115 M266.12354,28.0265115 C266.964554,27.6318251 267.824933,27.0997363 268.706522,26.430245 C269.108586,26.1259307 269.690472,26.2743992 269.909025,26.7281041 L270.808135,28.5936426 C270.965825,28.9210109 270.887441,29.3239967 270.610792,29.560993 C269.474685,30.5329542 268.31368,31.278063 267.125933,31.7944751 C265.775884,32.3828159 264.245091,32.6769864 262.535398,32.6769864 C260.075064,32.6769864 258.017715,32.1614965 256.360586,31.1332832 C254.702534,30.1041478 253.466834,28.7144461 252.651641,26.963256 C251.835525,25.212988 251.428851,23.2414006 251.428851,21.0494159 C251.428851,18.8039457 251.842903,16.8065377 252.671928,15.0553476 C253.500032,13.3050796 254.74311,11.9218331 256.401161,10.905608 C258.05829,9.89030499 260.101807,9.38219243 262.535398,9.38219243 C265.287137,9.38219243 267.446846,10.1503553 269.009914,11.6876033 C270.573905,13.2248513 271.368811,15.3827159 271.395554,18.1630415 C271.395554,18.8749524 271.299648,19.6569477 271.107838,20.5090276 C271.025766,20.8723604 270.692864,21.1296442 270.319388,21.1296442 L257.476405,21.1296442 C257.019933,21.1296442 256.642768,21.5104981 256.669511,21.9651251 C256.789392,24.0215517 257.274451,25.633495 258.124686,26.8027994 C259.087426,28.1261052 260.570266,28.7872971 262.575051,28.7872971 C263.858704,28.7872971 265.040919,28.5337019 266.12354,28.0265115" id="Fill-21"></path>
                <path d="M165.347021,45.2666509 L166.220311,44.7447058 C167.020749,44.2651804 168.055418,44.3730736 168.710154,45.0370319 C170.656843,47.006775 175.761023,50.7101871 186.625964,50.7101871 C197.423586,50.7101871 202.522233,46.9791101 204.441257,45.0425649 C205.073862,44.4025829 206.060577,44.2817793 206.844417,44.7244182 L208.167723,45.4741378 C209.304752,46.1168864 209.559269,47.6615117 208.663847,48.6131853 C206.008936,51.433164 199.580528,56.2431733 186.625964,56.2431733 C173.665866,56.2431733 167.187661,51.4313196 164.508773,48.6196405 C163.608741,47.674422 163.850348,46.1325632 164.979999,45.4787487" id="Fill-23"></path>
            </g>
        </g>
    </g>
</svg>