<?xml version="1.0" encoding="UTF-8"?>
<svg width="19px" height="15px" viewBox="0 0 19 15" version="1.1" xmlns="http://www.w3.org/2000/svg" xmlns:xlink="http://www.w3.org/1999/xlink">
    <!-- Generator: Sketch 45.2 (43514) - http://www.bohemiancoding.com/sketch -->
    <title>À</title>
    <desc>Created with Sketch.</desc>
    <defs></defs>
    <g id="Page-1" stroke="none" stroke-width="1" fill="none" fill-rule="evenodd">
        <g id="Desktop-HD-Copy" transform="translate(-465.000000, -1141.000000)" fill="#263657">
            <g id="other" transform="translate(456.678313, 1130.873866)">
                <path d="M8.7734375,15.4399414 C8.7675781,15.267089 8.7675781,15.0371108 8.7734375,14.75 C8.7734375,14.7148436 8.77636716,14.6606449 8.78222656,14.5874023 C8.78808597,14.5141598 8.79101562,14.4599611 8.79101562,14.4248047 C8.77343741,13.6689415 9.06640323,12.9892608 9.66992188,12.3857422 C10.3437534,11.7001919 11.3735282,11.1669941 12.7592773,10.7861328 C14.1450265,10.4052715 15.7255771,10.2148438 17.5009766,10.2148438 C18.637701,10.2148438 19.734858,10.3012687 20.7924805,10.4741211 C21.8501029,10.6469735 22.8212846,10.8989241 23.7060547,11.2299805 C24.5908247,11.5610368 25.3012669,12.0034152 25.8374023,12.5571289 C26.3735378,13.1108426 26.6445312,13.7392543 26.6503906,14.4423828 L26.6503906,14.7324219 C26.65625,15.0195327 26.6547852,15.2539053 26.6459961,15.4355469 C26.637207,15.6171884 26.5932621,15.8339831 26.5141602,16.0859375 C26.4350582,16.3378919 26.316407,16.5458976 26.1582031,16.7099609 C25.7597636,17.1084004 25.1503947,17.2636723 24.3300781,17.1757812 C23.8964822,17.128906 23.5302749,17.0512701 23.2314453,16.9428711 C22.9326157,16.8344721 22.7011727,16.7143561 22.5371094,16.5825195 C22.3730461,16.4506829 22.2470708,16.2807628 22.1591797,16.0727539 C22.0712886,15.8647451 22.0185548,15.6699228 22.0009766,15.4882812 C21.9833983,15.3066397 21.977539,15.0781264 21.9833984,14.8027344 L21.9833984,14.6533203 C21.977539,14.4951164 21.8076189,14.33545 21.4736328,14.1743164 C21.1396468,14.0131828 20.6342807,13.874024 19.9575195,13.7568359 C19.2807583,13.6396479 18.5234417,13.5810547 17.6855469,13.5810547 C16.7363234,13.5810547 15.8779335,13.6616203 15.1103516,13.8227539 C14.3427696,13.9838875 13.8330091,14.1904284 13.5810547,14.4423828 C13.5107418,14.5126957 13.4755859,14.5830075 13.4755859,14.6533203 L13.4755859,14.8554688 C13.4755859,15.1250013 13.4638673,15.3476554 13.4404297,15.5234375 C13.4169921,15.6992196 13.3613286,15.8881826 13.2734375,16.090332 C13.1855464,16.2924815 13.0595711,16.4580072 12.8955078,16.5869141 C12.7314445,16.715821 12.5014663,16.8344721 12.2055664,16.9428711 C11.9096665,17.0512701 11.5507834,17.128906 11.1289062,17.1757812 C11.023437,17.1875001 10.8798837,17.1933594 10.6982422,17.1933594 C10.0537077,17.1933594 9.57324377,17.0263689 9.25683594,16.6923828 C9.09863202,16.5341789 8.97998086,16.3291028 8.90087891,16.0771484 C8.82177695,15.8251941 8.7792969,15.6127938 8.7734375,15.4399414 Z M9.74902344,15.2421875 C9.74902344,15.3125004 9.7519531,15.3652342 9.7578125,15.4003906 C9.7636719,15.4355471 9.76953122,15.4838864 9.77539062,15.5454102 C9.78125003,15.6069339 9.790039,15.6552733 9.80175781,15.6904297 C9.81347662,15.7255861 9.82666008,15.7666013 9.84130859,15.8134766 C9.8559571,15.8603518 9.87353505,15.8999022 9.89404297,15.9321289 C9.91455088,15.9643556 9.93652332,15.995117 9.95996094,16.0244141 C10.1181649,16.2060556 10.4726535,16.2675784 11.0234375,16.2089844 C11.2695325,16.1796874 11.4775382,16.1489259 11.6474609,16.1166992 C11.8173837,16.0844725 11.9565424,16.0361331 12.0649414,15.9716797 C12.1733404,15.9072262 12.2568356,15.8500979 12.3154297,15.800293 C12.3740237,15.750488 12.4165038,15.6669928 12.4428711,15.5498047 C12.4692384,15.4326166 12.4853515,15.3330082 12.4912109,15.2509766 C12.4970703,15.1689449 12.5,15.0371103 12.5,14.8554688 L12.5,14.6533203 C12.4824218,14.3427719 12.6083971,14.0439467 12.8779297,13.7568359 C13.1240247,13.5048816 13.472654,13.2939462 13.9238281,13.1240234 C14.3750023,12.9541007 14.8627903,12.8354496 15.387207,12.7680664 C15.9116237,12.7006833 16.3452131,12.6567384 16.6879883,12.6362305 C17.0307634,12.6157226 17.3632796,12.6054688 17.6855469,12.6054688 C17.8671884,12.6054688 18.059081,12.6083984 18.2612305,12.6142578 C18.4633799,12.6201172 18.7460919,12.63916 19.109375,12.6713867 C19.4726581,12.7036134 19.8139632,12.7446287 20.1333008,12.7944336 C20.4526383,12.8442385 20.7924787,12.9204096 21.152832,13.0229492 C21.5131854,13.1254888 21.8207995,13.2470696 22.0756836,13.3876953 C22.3305677,13.528321 22.5415031,13.7070302 22.7084961,13.9238281 C22.8754891,14.1406261 22.9589844,14.3837877 22.9589844,14.6533203 L22.9589844,14.8203125 C22.9414062,15.3007837 22.9765621,15.6054681 23.0644531,15.734375 C23.2460947,15.98047 23.7031213,16.1386715 24.4355469,16.2089844 C24.5058597,16.2207032 24.6083978,16.2265625 24.7431641,16.2265625 C25.0888689,16.2265625 25.3291009,16.1591804 25.4638672,16.0244141 C25.6279305,15.8486319 25.6982423,15.4238315 25.6748047,14.75 L25.6748047,14.4423828 C25.6689453,14.1669908 25.594239,13.9033216 25.4506836,13.6513672 C25.3071282,13.3994128 25.1108411,13.1767588 24.8618164,12.9833984 C24.6127917,12.7900381 24.3579115,12.6245124 24.097168,12.4868164 C23.8364245,12.3491204 23.5537125,12.2216803 23.2490234,12.1044922 C21.7080001,11.4892547 19.7920036,11.1816406 17.5009766,11.1816406 C15.8779216,11.1816406 14.4277408,11.350096 13.1503906,11.6870117 C11.8730405,12.0239275 10.9414092,12.4853486 10.3554688,13.0712891 C9.94531045,13.4814474 9.74902335,13.9326147 9.76660156,14.4248047 C9.76660156,14.4599611 9.7636719,14.5170894 9.7578125,14.5961914 C9.7519531,14.6752934 9.74902344,14.7324217 9.74902344,14.7675781 L9.74902344,15.2421875 Z M11.6738281,22.3085938 C11.6738281,21.5410118 11.7851551,20.6958054 12.0078125,19.7729492 C12.2304699,18.850093 12.5790992,17.984379 13.0537109,17.1757812 C13.6220732,16.2031201 14.300289,15.4648463 15.0883789,14.9609375 C15.8764688,14.4570287 16.7480421,14.2050781 17.703125,14.2050781 L17.7207031,14.2050781 C18.3828158,14.2050781 19.0082978,14.3310534 19.597168,14.5830078 C20.1860381,14.8349622 20.6957986,15.1733377 21.1264648,15.5981445 C21.5571311,16.0229513 21.9438459,16.5063449 22.2866211,17.0483398 C22.6293962,17.5903347 22.9062489,18.1660126 23.1171875,18.7753906 C23.3281261,19.3847687 23.4892573,19.9897431 23.6005859,20.590332 C23.7119146,21.190921 23.7675781,21.7695285 23.7675781,22.3261719 C23.7558593,23.1582073 23.6254895,23.8100562 23.3764648,24.2817383 C23.1274402,24.7534203 22.7832053,24.9892578 22.34375,24.9892578 L13.0976562,24.9892578 C12.6523415,24.9892578 12.3037122,24.7519555 12.0517578,24.2773438 C11.7998034,23.802732 11.6738281,23.1464886 11.6738281,22.3085938 Z M12.640625,22.3085938 C12.640625,22.6777362 12.6684568,22.9985338 12.7241211,23.2709961 C12.7797854,23.5434584 12.8413083,23.735351 12.9086914,23.8466797 C12.9760746,23.9580084 13.0390622,24.0136719 13.0976562,24.0136719 L22.34375,24.0136719 C22.3964846,24.0136719 22.4550778,23.9580084 22.5195312,23.8466797 C22.5839847,23.735351 22.6425779,23.5434584 22.6953125,23.2709961 C22.7480471,22.9985338 22.7744141,22.6835955 22.7744141,22.3261719 C22.7861329,21.6523404 22.6894542,20.8950237 22.484375,20.0541992 C22.2792958,19.2133747 21.9628928,18.4238318 21.5351562,17.6855469 C21.3476553,17.369139 21.1425792,17.0761732 20.9199219,16.8066406 C20.6972645,16.537108 20.4292008,16.2734388 20.1157227,16.015625 C19.8022445,15.7578112 19.4404317,15.5542 19.0302734,15.4047852 C18.6201151,15.2553703 18.1835961,15.1806641 17.7207031,15.1806641 L17.703125,15.1806641 C17.2402321,15.1806641 16.803713,15.2539055 16.3935547,15.4003906 C15.9833964,15.5468757 15.6230484,15.7475573 15.3125,16.0024414 C15.0019516,16.2573255 14.7353527,16.5180651 14.5126953,16.784668 C14.2900379,17.0512709 14.0878915,17.3427719 13.90625,17.6591797 C13.4785135,18.3916052 13.1606456,19.1782185 12.9526367,20.019043 C12.7446279,20.8598675 12.640625,21.6230434 12.640625,22.3085938 Z M14.8027344,20.2695312 C14.8027344,19.4667929 15.0869112,18.7812528 15.6552734,18.2128906 C16.2236357,17.6445284 16.9121053,17.3603516 17.7207031,17.3603516 C18.5234415,17.3603516 19.2104464,17.6459932 19.7817383,18.2172852 C20.3530302,18.7885771 20.6386719,19.4726523 20.6386719,20.2695312 C20.6386719,21.0722696 20.3515654,21.7592745 19.7773438,22.3305664 C19.2031221,22.9018583 18.5175821,23.1875 17.7207031,23.1875 C16.9121053,23.1875 16.2236357,22.9018583 15.6552734,22.3305664 C15.0869112,21.7592745 14.8027344,21.0722696 14.8027344,20.2695312 Z M15.7783203,20.2695312 C15.7783203,20.802737 15.9672833,21.2612285 16.3452148,21.6450195 C16.7231464,22.0288105 17.1816379,22.2207031 17.7207031,22.2207031 C18.2539089,22.2207031 18.7109356,22.0288105 19.0917969,21.6450195 C19.4726582,21.2612285 19.6630859,20.802737 19.6630859,20.2695312 C19.6630859,19.7304661 19.4726582,19.2719745 19.0917969,18.894043 C18.7109356,18.5161114 18.2539089,18.3271484 17.7207031,18.3271484 C17.1816379,18.3271484 16.7231464,18.5161114 16.3452148,18.894043 C15.9672833,19.2719745 15.7783203,19.7304661 15.7783203,20.2695312 Z" id="À"></path>
            </g>
        </g>
    </g>
</svg>